<svg width="101" height="21" viewBox="0 0 101 21" fill="none" xmlns="http://www.w3.org/2000/svg">
<path d="M7.45 1.748C9.374 1.748 11.0553 2.12933 12.494 2.892C13.9327 3.65467 15.042 4.72933 15.822 6.116C16.6193 7.48533 17.018 9.07133 17.018 10.874C17.018 12.6593 16.6193 14.2453 15.822 15.632C15.042 17.0187 13.924 18.0933 12.468 18.856C11.0293 19.6187 9.35667 20 7.45 20H0.612V1.748H7.45ZM7.164 16.152C8.84533 16.152 10.154 15.6927 11.09 14.774C12.026 13.8553 12.494 12.5553 12.494 10.874C12.494 9.19267 12.026 7.884 11.09 6.948C10.154 6.012 8.84533 5.544 7.164 5.544H5.058V16.152H7.164ZM18.8758 12.72C18.8758 11.2293 19.1531 9.92067 19.7078 8.794C20.2798 7.66733 21.0511 6.80067 22.0218 6.194C22.9924 5.58733 24.0758 5.284 25.2718 5.284C26.2944 5.284 27.1871 5.492 27.9498 5.908C28.7298 6.324 29.3278 6.87 29.7438 7.546V5.492H34.1898V20H29.7438V17.946C29.3104 18.622 28.7038 19.168 27.9238 19.584C27.1611 20 26.2684 20.208 25.2458 20.208C24.0671 20.208 22.9924 19.9047 22.0218 19.298C21.0511 18.674 20.2798 17.7987 19.7078 16.672C19.1531 15.528 18.8758 14.2107 18.8758 12.72ZM29.7438 12.746C29.7438 11.6367 29.4318 10.7613 28.8078 10.12C28.2011 9.47867 27.4558 9.158 26.5718 9.158C25.6878 9.158 24.9338 9.47867 24.3098 10.12C23.7031 10.744 23.3998 11.6107 23.3998 12.72C23.3998 13.8293 23.7031 14.7133 24.3098 15.372C24.9338 16.0133 25.6878 16.334 26.5718 16.334C27.4558 16.334 28.2011 16.0133 28.8078 15.372C29.4318 14.7307 29.7438 13.8553 29.7438 12.746ZM46.5814 5.336C48.2454 5.336 49.5801 5.89067 50.5854 7C51.5907 8.092 52.0934 9.6 52.0934 11.524V20H47.6734V12.122C47.6734 11.1513 47.4221 10.3973 46.9194 9.86C46.4167 9.32267 45.7407 9.054 44.8914 9.054C44.0421 9.054 43.3661 9.32267 42.8634 9.86C42.3607 10.3973 42.1094 11.1513 42.1094 12.122V20H37.6634V0.76H42.1094V7.442C42.5601 6.80067 43.1754 6.28933 43.9554 5.908C44.7354 5.52667 45.6107 5.336 46.5814 5.336ZM54.5561 12.72C54.5561 11.2293 54.8334 9.92067 55.3881 8.794C55.9601 7.66733 56.7314 6.80067 57.7021 6.194C58.6727 5.58733 59.7561 5.284 60.9521 5.284C61.9747 5.284 62.8674 5.492 63.6301 5.908C64.4101 6.324 65.0081 6.87 65.4241 7.546V5.492H69.8701V20H65.4241V17.946C64.9907 18.622 64.3841 19.168 63.6041 19.584C62.8414 20 61.9487 20.208 60.9261 20.208C59.7474 20.208 58.6727 19.9047 57.7021 19.298C56.7314 18.674 55.9601 17.7987 55.3881 16.672C54.8334 15.528 54.5561 14.2107 54.5561 12.72ZM65.4241 12.746C65.4241 11.6367 65.1121 10.7613 64.4881 10.12C63.8814 9.47867 63.1361 9.158 62.2521 9.158C61.3681 9.158 60.6141 9.47867 59.9901 10.12C59.3834 10.744 59.0801 11.6107 59.0801 12.72C59.0801 13.8293 59.3834 14.7133 59.9901 15.372C60.6141 16.0133 61.3681 16.334 62.2521 16.334C63.1361 16.334 63.8814 16.0133 64.4881 15.372C65.1121 14.7307 65.4241 13.8553 65.4241 12.746ZM77.7897 7.91C78.3097 7.11267 78.9597 6.48867 79.7397 6.038C80.5197 5.57 81.3864 5.336 82.3397 5.336V10.042H81.1177C80.0084 10.042 79.1764 10.2847 78.6217 10.77C78.067 11.238 77.7897 12.07 77.7897 13.266V20H73.3437V5.492H77.7897V7.91ZM89.1679 7.91C89.6879 7.11267 90.3379 6.48867 91.1179 6.038C91.8979 5.57 92.7646 5.336 93.7179 5.336V10.042H92.4959C91.3866 10.042 90.5546 10.2847 89.9999 10.77C89.4453 11.238 89.1679 12.07 89.1679 13.266V20H84.7219V5.492H89.1679V7.91ZM98.1802 20.208C97.4002 20.208 96.7588 19.9827 96.2562 19.532C95.7708 19.064 95.5282 18.492 95.5282 17.816C95.5282 17.1227 95.7708 16.542 96.2562 16.074C96.7588 15.606 97.4002 15.372 98.1802 15.372C98.9428 15.372 99.5668 15.606 100.052 16.074C100.555 16.542 100.806 17.1227 100.806 17.816C100.806 18.492 100.555 19.064 100.052 19.532C99.5668 19.9827 98.9428 20.208 98.1802 20.208Z" fill="#0A043C"/>
</svg>
