<svg width="22" height="22" viewBox="0 0 22 22" fill="none" xmlns="http://www.w3.org/2000/svg">
<path fill-rule="evenodd" clip-rule="evenodd" d="M14.894 21.239C11.876 21.239 8.32502 19.637 5.34302 16.657C0.585018 11.898 -0.656982 5.68601 2.51502 2.51401C3.45202 1.57801 4.59202 1.00801 5.90702 0.818008L6.66702 0.708008L9.46402 7.23001L6.66702 8.62801C7.31502 9.85601 8.29702 11.125 9.58602 12.414C10.815 13.643 12.083 14.618 13.356 15.31L14.67 12.737L21.153 13.663L21.191 14.49C21.286 16.549 20.696 18.276 19.485 19.486C18.301 20.67 16.692 21.239 14.894 21.239ZM5.46102 2.97201C4.88602 3.16501 4.37202 3.48601 3.92902 3.93001C1.62902 6.22901 2.92502 11.41 6.75702 15.243C10.591 19.076 15.771 20.369 18.071 18.071C18.837 17.305 19.113 16.295 19.181 15.401L15.814 14.92L15.168 16.214C14.924 16.702 14.503 17.061 13.982 17.224C13.461 17.389 12.883 17.33 12.399 17.067C10.959 16.284 9.53602 15.194 8.17102 13.829C6.74102 12.399 5.64202 10.97 4.90302 9.58101C4.64602 9.09601 4.59702 8.54201 4.76302 8.02001C4.92902 7.50101 5.28802 7.08201 5.77502 6.83801L6.88102 6.28501L5.46102 2.97201Z" fill="#92989F"/>
</svg>
