<svg width="32" height="32" viewBox="0 0 32 32" fill="none" xmlns="http://www.w3.org/2000/svg">
<path d="M21.5257 25H10.4742C10.1293 25.0001 9.78815 24.9259 9.47271 24.782C9.15727 24.6381 8.8745 24.4277 8.64257 24.1644C8.41065 23.9012 8.23469 23.5907 8.126 23.2532C8.01731 22.9156 7.97829 22.5583 8.01146 22.2042L8.84237 13.3053C8.9015 12.674 9.18661 12.088 9.64204 11.6618C10.0975 11.2356 10.6906 10.9996 11.3056 11H20.6943C21.3093 10.9997 21.9022 11.2357 22.3576 11.662C22.8129 12.0882 23.0979 12.6741 23.1571 13.3053L23.9884 22.2032C24.0218 22.5574 23.9828 22.9148 23.8742 23.2525C23.7656 23.5902 23.5897 23.9007 23.3577 24.1641C23.1258 24.4275 22.843 24.638 22.5274 24.7819C22.2119 24.9259 21.8707 25.0002 21.5257 25V25Z" stroke="#0A043C" stroke-width="1.5" stroke-linecap="round" stroke-linejoin="round"/>
<path d="M13 12.9985V10.0721C13.0004 9.2572 13.3166 8.4758 13.8791 7.89971C14.4416 7.32362 15.2044 7 15.9998 7V7C16.7954 7 17.5584 7.32381 18.1211 7.90021C18.6837 8.47661 18.9999 9.25839 19 10.0736V13" stroke="#0A043C" stroke-width="1.5" stroke-linecap="round" stroke-linejoin="round"/>
</svg>
